<?xml version="1.0" encoding="UTF-8"?>
<svg xmlns="http://www.w3.org/2000/svg" id="Layer_1" data-name="Layer 1" viewBox="0 0 646.84 123.5">
  <defs>
    <style>.cls-1{fill:#fff;}.cls-2{fill:#fbdd40;}.cls-3{fill:#f6be00;}</style>
  </defs>
  <title>RGB-whitelogo</title>
  <path class="cls-1" d="M146.81,37.63a26.62,26.62,0,1,0,26.62,26.62,26.65,26.65,0,0,0-26.62-26.62m23.58,25.12h-9.15c-.26-8.85-2.81-16.41-6.62-20.79A23.66,23.66,0,0,1,170.39,62.75Zm-12.14,0h-9.94V41.1C153.61,42.58,157.89,51.77,158.25,62.75ZM145.32,41.1V62.75h-9.94C135.74,51.77,140,42.58,145.32,41.1ZM139,42c-3.81,4.39-6.36,11.94-6.62,20.79h-9.15A23.67,23.67,0,0,1,139,42ZM123.24,65.75h9.15c.26,8.85,2.81,16.41,6.62,20.79A23.67,23.67,0,0,1,123.24,65.75Zm12.14,0h9.94V87.4C140,85.92,135.74,76.73,135.38,65.75ZM148.31,87.4V65.75h9.94C157.89,76.73,153.61,85.92,148.31,87.4Zm6.31-.86c3.81-4.38,6.36-11.94,6.62-20.79h9.15A23.66,23.66,0,0,1,154.62,86.54Z" transform="translate(-1.5 -2.5)"></path>
  <path class="cls-2" d="M186,90.25a47,47,0,0,1-39.16,21V126a61.68,61.68,0,0,0,51.44-27.6L186,90.25M146.82,2.5h0a61.64,61.64,0,0,0-49,24.18l11.7,9a46.91,46.91,0,0,1,37.29-18.4h0Z" transform="translate(-1.5 -2.5)"></path>
  <path class="cls-3" d="M187,64.25a40.17,40.17,0,0,1-21.59,35.62l.86,1.65a42,42,0,0,0,22.59-37.27h12a54,54,0,0,0-54-54V24.07A40.19,40.19,0,0,1,187,64.25" transform="translate(-1.5 -2.5)"></path>
  <path class="cls-3" d="M106.63,64.25a40.17,40.17,0,0,1,21.59-35.62L127.36,27a42,42,0,0,0-22.59,37.27h-12a54,54,0,0,0,54,54V104.44a40.18,40.18,0,0,1-40.19-40.19" transform="translate(-1.5 -2.5)"></path>
  <polyline class="cls-1" points="0 35.73 27.56 35.73 35.03 60.57 48.32 35.73 64.91 35.73 77.09 60.57 85 35.73 106.31 35.73 85.55 87.77 67.43 87.77 53.04 61.75 37.12 87.77 19.55 87.77 0 35.73"></polyline>
  <polyline class="cls-1" points="277.71 35.73 306.37 35.73 306.37 76.05 337.13 76.05 337.13 87.77 277.71 87.77 277.71 35.73"></polyline>
  <path class="cls-1" d="M345.44,38.16h32.73c15.37,0,23.39.74,31,4.05,9.55,4.2,16,12.16,16,21.67,0,6.34-3.08,13.42-9.89,18.57-10.32,7.81-23.61,7.81-33.49,7.81H345.44V38.16m28.44,40.61c5.6,0,9.23,0,13-1.62A14,14,0,0,0,389.69,53c-4.17-3-9-3-15.82-3Z" transform="translate(-1.5 -2.5)"></path>
  <polyline class="cls-1" points="430.81 35.73 448.49 35.73 482.1 60.35 482.1 35.73 502.97 35.73 502.97 87.77 488.14 87.77 451.68 61.38 451.68 87.77 430.81 87.77 430.81 35.73"></polyline>
  <polyline class="cls-1" points="574.36 35.73 574.36 47.45 543.72 47.45 543.72 55.63 569.09 55.63 569.09 66.25 543.72 66.25 543.72 76.05 578.64 76.05 578.64 87.77 515.27 87.77 515.27 35.73 574.36 35.73"></polyline>
  <polyline class="cls-1" points="579.85 35.73 646.84 35.73 646.84 47.45 627.84 47.45 627.84 87.77 599.4 87.77 599.4 47.45 579.85 47.45 579.85 35.73"></polyline>
  <path class="cls-1" d="M193.3,38.23l47.6,0c3.43,0,25.33-.25,26.31,14.57.61,9.18-13.07,13.34-13.07,13.34s8.21,13.74,17.1,24H242.68s-13.46-17.14-16-23.62c0,0,9.24-4,11.17-8.63,2.79-6.73-.93-9-16.51-9V90.45H193.28V38.23" transform="translate(-1.5 -2.5)"></path>
</svg>
